<?xml version="1.0" encoding="iso-8859-1"?>
<!-- Generator: Adobe Illustrator 19.0.0, SVG Export Plug-In . SVG Version: 6.00 Build 0)  -->
<svg version="1.1" id="Capa_1" xmlns="http://www.w3.org/2000/svg" xmlns:xlink="http://www.w3.org/1999/xlink" x="0px" y="0px"
	 viewBox="0 0 512 512" style="enable-background:new 0 0 512 512;" xml:space="preserve">
<path style="fill:#FFCD50;" d="M256,368.163L256,368.163c-63.69,0-115.32-51.631-115.32-115.32V141.822h230.64v111.021
	C371.32,316.533,319.69,368.163,256,368.163z"/>
<path style="fill:#4FC6E0;" d="M256,368.163L256,368.163c-8.404,0-16.595-0.898-24.489-2.605v70.325h48.978V365.56
	C272.595,367.267,264.404,368.163,256,368.163z"/>
<path d="M172.32,195.87c-0.65,0-1.31-0.07-1.95-0.2c-0.64-0.13-1.27-0.32-1.87-0.57c-0.61-0.25-1.19-0.56-1.73-0.92
	c-0.55-0.36-1.06-0.78-1.52-1.24s-0.88-0.98-1.24-1.52c-0.36-0.55-0.67-1.13-0.92-1.73c-0.25-0.6-0.44-1.23-0.57-1.87
	s-0.2-1.3-0.2-1.95c0-0.66,0.07-1.31,0.2-1.96c0.13-0.64,0.32-1.26,0.57-1.87c0.25-0.6,0.56-1.18,0.92-1.72
	c0.36-0.55,0.78-1.06,1.24-1.52c0.46-0.47,0.97-0.88,1.52-1.25c0.54-0.36,1.12-0.67,1.73-0.92c0.6-0.25,1.23-0.44,1.87-0.57
	c1.29-0.26,2.61-0.26,3.9,0c0.64,0.13,1.27,0.32,1.88,0.57c0.6,0.25,1.18,0.56,1.72,0.92c0.55,0.37,1.06,0.78,1.52,1.25
	c0.46,0.46,0.88,0.97,1.24,1.52c0.36,0.54,0.67,1.12,0.92,1.72c0.25,0.61,0.45,1.23,0.57,1.87c0.13,0.65,0.2,1.3,0.2,1.96
	c0,0.65-0.07,1.31-0.2,1.95c-0.12,0.64-0.32,1.27-0.57,1.87c-0.25,0.6-0.56,1.18-0.92,1.73c-0.36,0.54-0.78,1.06-1.24,1.52
	s-0.97,0.88-1.52,1.24c-0.539,0.36-1.12,0.67-1.72,0.92c-0.61,0.25-1.24,0.44-1.88,0.57S172.97,195.87,172.32,195.87z"/>
<path style="fill:#00599A;" d="M360.704,502H151.296v-50.859c0-8.427,6.832-15.259,15.259-15.259h178.891
	c8.427,0,15.259,6.832,15.259,15.259V502H360.704z"/>
<path d="M319.75,479.08c-0.65,0-1.31-0.07-1.96-0.2c-0.63-0.13-1.26-0.32-1.87-0.57c-0.6-0.25-1.18-0.56-1.72-0.921
	c-0.55-0.36-1.06-0.78-1.52-1.24s-0.88-0.98-1.25-1.52c-0.36-0.55-0.67-1.13-0.92-1.73s-0.44-1.23-0.57-1.87
	c-0.13-0.65-0.19-1.3-0.19-1.95c0-0.66,0.06-1.31,0.19-1.96c0.13-0.64,0.32-1.27,0.57-1.87s0.56-1.18,0.92-1.73
	c0.37-0.54,0.79-1.06,1.25-1.52s0.97-0.88,1.52-1.24c0.54-0.36,1.12-0.67,1.72-0.92c0.61-0.25,1.24-0.44,1.87-0.57
	c1.29-0.26,2.62-0.26,3.91,0c0.64,0.13,1.27,0.32,1.87,0.57c0.61,0.25,1.19,0.56,1.73,0.92c0.55,0.36,1.06,0.78,1.52,1.24
	s0.88,0.98,1.24,1.52c0.36,0.55,0.67,1.13,0.92,1.73s0.44,1.23,0.57,1.87c0.13,0.65,0.2,1.3,0.2,1.96c0,2.63-1.07,5.2-2.93,7.07
	c-0.46,0.46-0.97,0.88-1.52,1.24c-0.54,0.36-1.12,0.671-1.73,0.921c-0.6,0.25-1.23,0.44-1.87,0.57
	C321.06,479.01,320.4,479.08,319.75,479.08z"/>
<path d="M414.903,175.232H381.32v-33.41c0-5.523-4.477-10-10-10H140.68c-5.523,0-10,4.477-10,10v33.41H97.097
	c-5.523,0-10,4.477-10,10v22.013c0,31.051,18.446,59.375,46.423,72.15c9.779,45.152,43.956,81.318,87.991,93.941v52.548h-54.956
	c-13.928,0-25.259,11.331-25.259,25.259V502c0,5.523,4.477,10,10,10h209.408c5.523,0,10-4.477,10-10v-50.858
	c0-13.928-11.331-25.259-25.259-25.259h-54.957v-52.548c44.034-12.622,78.212-48.788,87.991-93.939
	c27.981-12.775,46.423-41.09,46.423-72.151v-22.013C424.903,179.709,420.426,175.232,414.903,175.232z M107.097,207.245v-12.013
	h23.583v57.611c0,0.571,0.014,1.139,0.022,1.709C116.149,243.515,107.097,226.051,107.097,207.245z M350.704,451.142V492H161.296
	v-12.925h121.091c5.523,0,10-4.477,10-10s-4.477-10-10-10H161.296v-7.934c0-2.9,2.359-5.259,5.259-5.259h64.956h48.978h64.957
	C348.345,445.883,350.704,448.242,350.704,451.142z M270.489,377.333v48.55h-28.978v-48.551c0.27,0.031,0.541,0.052,0.811,0.082
	c0.651,0.071,1.304,0.136,1.958,0.197c0.463,0.043,0.926,0.086,1.39,0.124c0.743,0.061,1.489,0.112,2.236,0.16
	c0.385,0.025,0.769,0.052,1.154,0.073c0.901,0.049,1.804,0.086,2.71,0.116c0.239,0.008,0.477,0.021,0.715,0.027
	c1.168,0.032,2.339,0.052,3.514,0.052c1.177,0,2.349-0.02,3.519-0.052c0.236-0.007,0.472-0.019,0.708-0.027
	c0.907-0.03,1.812-0.067,2.714-0.116c0.39-0.021,0.778-0.049,1.168-0.074c0.737-0.047,1.472-0.098,2.206-0.158
	c0.484-0.039,0.968-0.084,1.452-0.129c0.619-0.058,1.237-0.119,1.853-0.186C269.908,377.389,270.199,377.366,270.489,377.333z
	 M272.159,356.924c-0.208,0.032-0.416,0.061-0.625,0.091c-0.615,0.091-1.231,0.179-1.85,0.26c-0.573,0.074-1.148,0.141-1.723,0.205
	c-0.27,0.031-0.539,0.064-0.809,0.093c-7.412,0.773-14.944,0.772-22.359-0.006c-0.138-0.015-0.275-0.032-0.412-0.047
	c-0.713-0.078-1.425-0.162-2.136-0.254c-0.496-0.065-0.99-0.136-1.483-0.208c-0.336-0.048-0.672-0.096-1.007-0.147
	c-0.739-0.115-1.475-0.237-2.209-0.367c-0.078-0.014-0.156-0.027-0.235-0.041c-49.19-8.845-86.632-51.961-86.632-103.658V151.822
	H361.32v24.044H208.653c-5.523,0-10,4.477-10,10s4.477,10,10,10H361.32v56.977C361.32,305.423,322.589,349.126,272.159,356.924z
	 M404.903,207.245c0,18.812-9.051,36.272-23.605,47.309c0.008-0.57,0.022-1.138,0.022-1.71v-57.611h23.583V207.245z"/>
<polygon style="fill:#E9A934;" points="256,93.267 225.41,104.145 226.303,71.691 206.505,45.96 237.646,36.78 256,10 
	274.354,36.78 305.495,45.96 285.697,71.691 286.59,104.145 "/>
<path d="M286.589,114.145c-1.126,0-2.259-0.19-3.35-0.578L256,103.881l-27.239,9.686c-3.107,1.105-6.56,0.607-9.229-1.331
	c-2.668-1.939-4.209-5.068-4.118-8.365l0.795-28.899L198.58,52.059c-2.011-2.614-2.605-6.051-1.586-9.188s3.52-5.569,6.683-6.502
	l27.73-8.175l16.344-23.847C249.616,1.627,252.702,0,256,0c3.298,0,6.384,1.627,8.249,4.347l16.344,23.847l27.73,8.175
	c3.163,0.933,5.664,3.365,6.683,6.502c1.019,3.137,0.426,6.574-1.585,9.188l-17.629,22.913l0.795,28.899
	c0.091,3.297-1.45,6.426-4.118,8.365C290.736,113.494,288.673,114.145,286.589,114.145z M256,83.268
	c1.133,0,2.267,0.193,3.351,0.578l16.842,5.989l-0.492-17.868c-0.064-2.299,0.668-4.55,2.071-6.373l10.9-14.167l-17.146-5.054
	c-2.206-0.65-4.121-2.042-5.421-3.938L256,27.689l-10.105,14.745c-1.3,1.897-3.215,3.288-5.421,3.938l-17.146,5.054l10.9,14.167
	c1.403,1.823,2.134,4.074,2.071,6.373l-0.492,17.868l16.842-5.989C253.733,83.46,254.867,83.268,256,83.268z"/>
<polygon style="fill:#F1E37F;" points="424.5,126.792 399.27,135.764 400.006,108.996 383.677,87.774 409.362,80.202 424.5,58.114 
	439.638,80.202 465.323,87.774 448.994,108.996 449.73,135.764 "/>
<path d="M449.729,145.764c-1.126,0-2.259-0.19-3.35-0.578l-21.879-7.781l-21.879,7.781c-3.107,1.106-6.56,0.607-9.229-1.332
	c-2.668-1.939-4.209-5.068-4.118-8.365l0.639-23.213l-14.161-18.404c-2.011-2.614-2.605-6.052-1.586-9.188
	c1.02-3.137,3.52-5.569,6.683-6.502l22.274-6.566l13.128-19.155c1.864-2.72,4.95-4.347,8.249-4.347s6.384,1.626,8.249,4.347
	l13.128,19.155l22.274,6.566c3.164,0.933,5.664,3.365,6.683,6.502s0.426,6.574-1.585,9.188l-14.161,18.404l0.639,23.213
	c0.091,3.297-1.45,6.426-4.118,8.365C453.876,145.112,451.813,145.764,449.729,145.764z M424.5,116.792
	c1.133,0,2.267,0.193,3.351,0.578l11.482,4.083l-0.335-12.182c-0.063-2.299,0.668-4.55,2.071-6.373l7.431-9.658l-11.689-3.446
	c-2.206-0.65-4.121-2.041-5.421-3.938l-6.89-10.053l-6.889,10.052c-1.3,1.897-3.215,3.288-5.421,3.938L400.5,93.24l7.431,9.658
	c1.403,1.823,2.134,4.074,2.071,6.373l-0.335,12.182l11.482-4.083C422.233,116.984,423.367,116.792,424.5,116.792z"/>
<polygon style="fill:#F1E37F;" points="87.5,126.792 62.27,135.764 63.006,108.996 46.677,87.774 72.362,80.202 87.5,58.114 
	102.638,80.202 128.323,87.774 111.994,108.996 112.73,135.764 "/>
<path d="M112.729,145.764c-1.127,0-2.259-0.19-3.35-0.578L87.5,137.405l-21.879,7.781c-3.107,1.106-6.56,0.607-9.228-1.332
	s-4.209-5.068-4.118-8.365l0.639-23.213L38.752,93.872c-2.011-2.614-2.604-6.052-1.586-9.188c1.02-3.137,3.52-5.569,6.683-6.502
	l22.274-6.566l13.128-19.155c1.864-2.72,4.95-4.347,8.248-4.347s6.384,1.626,8.249,4.347l13.127,19.155l22.274,6.566
	c3.164,0.933,5.664,3.365,6.683,6.502s0.426,6.574-1.585,9.188l-14.161,18.404l0.639,23.213c0.091,3.297-1.45,6.426-4.118,8.365
	C116.876,145.112,114.813,145.764,112.729,145.764z M87.5,116.792c1.133,0,2.267,0.193,3.351,0.578l11.482,4.083l-0.335-12.182
	c-0.063-2.299,0.668-4.55,2.071-6.373l7.431-9.658l-11.69-3.446c-2.206-0.65-4.121-2.041-5.421-3.938L87.5,75.803l-6.889,10.052
	c-1.3,1.897-3.215,3.288-5.421,3.938L63.5,93.24l7.431,9.658c1.403,1.823,2.134,4.074,2.071,6.373l-0.335,12.182l11.482-4.083
	C85.233,116.984,86.367,116.792,87.5,116.792z"/>
<polygon style="fill:#E9A934;" points="239.212,307.409 216.906,305.961 215.458,283.654 200.714,266.866 215.458,250.078 
	216.906,227.772 239.212,226.324 256,211.58 272.788,226.324 295.094,227.772 296.542,250.078 311.286,266.866 296.542,283.654 
	295.094,305.961 272.788,307.409 256,322.152 "/>
<path d="M256,332.152c-2.355,0-4.711-0.829-6.599-2.486l-14.232-12.498l-18.911-1.228c-5.013-0.326-9.006-4.319-9.331-9.332
	l-1.228-18.911L193.2,273.465c-3.315-3.775-3.315-9.423,0-13.198l12.499-14.232l1.228-18.911c0.325-5.013,4.318-9.006,9.331-9.332
	l18.912-1.228l14.232-12.498c3.774-3.315,9.423-3.315,13.197-0.001l14.233,12.499l18.911,1.228c5.013,0.326,9.006,4.319,9.331,9.332
	l1.228,18.911l12.499,14.232c3.315,3.775,3.315,9.423,0,13.198l-12.499,14.232l-1.228,18.911c-0.325,5.013-4.318,9.006-9.331,9.332
	l-18.912,1.228l-14.232,12.498C260.711,331.323,258.355,332.152,256,332.152z M226.316,296.55l13.544,0.879
	c2.201,0.143,4.293,1.01,5.951,2.465l10.19,8.949l10.19-8.948c1.657-1.455,3.749-2.322,5.951-2.465l13.544-0.879l0.879-13.543
	c0.143-2.202,1.01-4.294,2.465-5.951l8.949-10.189l-8.949-10.189c-1.455-1.657-2.322-3.75-2.465-5.951l-0.879-13.543l-13.544-0.879
	c-2.201-0.143-4.293-1.01-5.951-2.465L256,224.889l-10.189,8.948c-1.657,1.456-3.749,2.322-5.951,2.465l-13.544,0.879l-0.879,13.543
	c-0.143,2.202-1.01,4.294-2.465,5.951l-8.949,10.189l8.949,10.189c1.456,1.657,2.322,3.75,2.465,5.951L226.316,296.55z"/>
<g>
</g>
<g>
</g>
<g>
</g>
<g>
</g>
<g>
</g>
<g>
</g>
<g>
</g>
<g>
</g>
<g>
</g>
<g>
</g>
<g>
</g>
<g>
</g>
<g>
</g>
<g>
</g>
<g>
</g>
</svg>
