<svg height="512" viewBox="0 0 64 64" width="512" xmlns="http://www.w3.org/2000/svg"><path d="m41 15 2 2v13l-2 3v2l2 3v21a2.006 2.006 0 0 1 -2 2h-18a2.006 2.006 0 0 1 -2-2v-21l2-3v-2l-2-3v-13l2-2v-2h18z" fill="#5aaae7"/><path d="m41 13h-19v-2l1.72-3.45a1 1 0 0 1 .9-.55h14.76a1 1 0 0 1 .9.55l1.72 3.45v2z" fill="#1e81ce"/><path d="m30 3h4v4h-4z" fill="#3d9ae2"/><path d="m23 13h18v2h-18z" fill="#3d9ae2"/><path d="m43.832 30.555a1.006 1.006 0 0 0 .168-.555v-13a1 1 0 0 0 -.293-.707l-1.707-1.707v-.586a1 1 0 0 0 1-1v-2a1 1 0 0 0 -.1-.447l-1.729-3.448a1.99 1.99 0 0 0 -1.789-1.105h-4.382v-3a1 1 0 0 0 -1-1h-4a1 1 0 0 0 -1 1v3h-4.382a1.99 1.99 0 0 0 -1.789 1.105l-1.724 3.448a1 1 0 0 0 -.105.447v2a1 1 0 0 0 1 1v.586l-1.707 1.707a1 1 0 0 0 -.293.707v13a1.006 1.006 0 0 0 .168.555l1.832 2.745v1.4l-1.832 2.748a1.006 1.006 0 0 0 -.168.552v21a3 3 0 0 0 3 3h18a3 3 0 0 0 3-3v-21a1.006 1.006 0 0 0 -.168-.555l-1.832-2.745v-1.4zm-12.832-26.555h2v2h-2zm-8 7.236 1.618-3.236h14.764l1.618 3.236v.764h-18zm17.168 24.319 1.832 2.745v20.7a1 1 0 0 1 -1 1h-18a1 1 0 0 1 -1-1v-20.7l1.832-2.748a1.006 1.006 0 0 0 .168-.552v-2a1.006 1.006 0 0 0 -.168-.555l-1.832-2.745v-12.286l1.707-1.707a1 1 0 0 0 .293-.707v-1h16v1a1 1 0 0 0 .293.707l1.707 1.707v12.286l-1.832 2.748a1.006 1.006 0 0 0 -.168.552v2a1.006 1.006 0 0 0 .168.555z"/></svg>