<?xml version="1.0" encoding="iso-8859-1"?>
<!-- Generator: Adobe Illustrator 19.0.0, SVG Export Plug-In . SVG Version: 6.00 Build 0)  -->
<svg version="1.1" id="Capa_1" xmlns="http://www.w3.org/2000/svg" xmlns:xlink="http://www.w3.org/1999/xlink" x="0px" y="0px"
	 viewBox="0 0 480 480" style="enable-background:new 0 0 480 480;" xml:space="preserve">
<g>
	<polygon style="fill:#FFB398;" points="232,56 216,40 232,56 240,64 248,72 272,72 304,72 304,96 336,96 336,8 200,8 168,40 
		176,48 208,80 	"/>
	<polygon style="fill:#FFB398;" points="208,128 208,80 176,48 176,96 176,128 	"/>
	<polygon style="fill:#FFB398;" points="240,64 232,56 208,80 208,128 240,128 	"/>
	<polygon style="fill:#FFB398;" points="272,128 272,72 248,72 240,64 240,128 	"/>
	<polygon style="fill:#FFB398;" points="272,72 272,128 304,128 304,96 304,72 	"/>
</g>
<rect x="336" y="8" style="fill:#20557D;" width="136" height="88"/>
<g>
	<polygon style="fill:#25C656;" points="176,128 176,96 144,128 144,192 176,192 	"/>
	<polygon style="fill:#25C656;" points="304,192 336,192 336,128 304,96 304,128 	"/>
	<polygon style="fill:#25C656;" points="195.68,302 224,256 255.12,256 287.92,308.64 272,320 297.76,324.32 320,328 323.92,304.32 
		328,280 314.48,289.68 272,224 208,224 169.28,283.76 192,280 	"/>
	<polygon style="fill:#25C656;" points="297.76,324.32 320,360 304,384 256,384 256,368 240,384 224,400 240,416 256,432 256,416 
		320,416 360,360 323.92,304.32 320,328 	"/>
	<polygon style="fill:#25C656;" points="160,416 240,416 224,400 240,384 176,384 160,360 185.92,317.92 200,328 195.68,302 
		192,280 169.28,283.76 144,288 159.44,299.04 120,360 	"/>
</g>
<polygon style="fill:#D0DFEA;" points="336,192 304,192 240,192 240,224 272,224 314.48,289.68 328,280 323.92,304.32 360,360 
	320,416 256,416 256,432 240,416 240,472 416,472 472,416 472,192 "/>
<g>
	<polygon style="fill:#FEFEFE;" points="160,416 120,360 159.44,299.04 144,288 169.28,283.76 208,224 240,224 240,192 176,192 
		144,192 8,192 8,416 64,472 240,472 240,416 	"/>
	<polygon style="fill:#FEFEFE;" points="224,256 195.68,302 200,328 185.92,317.92 160,360 176,384 240,384 240,256 	"/>
</g>
<polygon style="fill:#D0DFEA;" points="256,384 304,384 320,360 297.76,324.32 272,320 287.92,308.64 255.12,256 240,256 240,384 
	256,368 "/>
<path d="M335.891,281.324c0.535-3.195-0.91-6.398-3.656-8.113c-2.742-1.707-6.254-1.602-8.891,0.285l-6.699,4.797l-37.926-58.637
	C277.242,217.375,274.715,216,272,216h-64c-2.711,0-5.238,1.375-6.715,3.648l-36.821,56.829l-21.788,3.632
	c-3.188,0.535-5.742,2.938-6.469,6.09c-0.73,3.148,0.512,6.43,3.141,8.309l9.227,6.598l-35.289,54.551
	c-1.785,2.754-1.703,6.32,0.203,8.992l40,56c1.504,2.105,3.93,3.352,6.512,3.352h76.688l13.656,13.656
	c1.531,1.531,3.574,2.344,5.656,2.344c1.031,0,2.07-0.199,3.063-0.609c2.988-1.238,4.938-4.156,4.938-7.391v-8h56
	c2.582,0,5.008-1.246,6.512-3.352l40-56c1.906-2.672,1.988-6.242,0.203-9l-34.372-53.046L335.891,281.324z M259.063,360.609
	c-2.996-1.242-6.434-0.555-8.719,1.734L236.688,376h-56.406L169.5,359.828l18.738-30.41l7.105,5.086
	c2.629,1.891,6.145,2,8.887,0.285c2.746-1.711,4.191-4.906,3.66-8.102l-3.828-23.043L228.469,264h22.211l26.477,42.492l-9.801,6.996
	c-2.637,1.879-3.879,5.156-3.152,8.309c0.73,3.152,3.281,5.559,6.473,6.094l22.202,3.722l17.603,28.243L299.719,376H264v-8
	C264,364.766,262.051,361.848,259.063,360.609z M185.844,272.91L212.348,232h55.301l40.113,62.023
	c1.188,1.836,3.078,3.109,5.227,3.516c1.352,0.258,2.727,0.16,4.004-0.266l-0.946,5.693c-0.003,0.016-0.012,0.029-0.015,0.045
	l-2.617,15.789l-21.055-3.496l0.207-0.152c3.441-2.453,4.379-7.156,2.145-10.742L261.91,251.77c-1.461-2.344-4.027-3.77-6.789-3.77
	H224c-2.777,0-5.355,1.441-6.813,3.805l-17.137,27.835l-0.16-0.96c-0.727-4.352-4.844-7.238-9.195-6.574L185.844,272.91z
	 M164.117,408l-34.445-48.223l36.484-56.391c2.273-3.512,1.453-8.156-1.832-10.684l21.102-3.508l3.563,21.336
	c-1.461-0.602-3.078-0.777-4.645-0.453c-2.176,0.438-4.07,1.758-5.234,3.648l-25.922,42.078c-1.637,2.66-1.578,6.031,0.156,8.633
	l16,24c1.484,2.227,3.98,3.563,6.656,3.563h44.688l-2.344,2.344c-3.125,3.125-3.125,8.188,0,11.313l2.344,2.344H164.117z
	 M350.324,359.781L315.883,408H256c-3.43,0-6.355,2.16-7.492,5.191L235.313,400l13.195-13.191C249.645,389.84,252.57,392,256,392h48
	c2.676,0,5.172-1.336,6.656-3.563l16-24c1.742-2.613,1.793-6.004,0.133-8.668l-12.883-20.668l4.789,0.793
	c0.441,0.07,0.879,0.105,1.313,0.105c0.384,0,0.731-0.144,1.104-0.198c0.392-0.057,0.771-0.093,1.146-0.206
	c0.597-0.178,1.129-0.455,1.664-0.762c0.316-0.181,0.641-0.318,0.929-0.541c0.523-0.403,0.94-0.906,1.352-1.429
	c0.199-0.252,0.443-0.451,0.611-0.728c0.516-0.848,0.903-1.789,1.076-2.829l0.551-3.305L350.324,359.781z"/>
<path d="M472,104c4.418,0,8-3.582,8-8V8c0-4.418-3.582-8-8-8H336H200c-2.121,0-4.156,0.844-5.656,2.344l-32,32
	c-3.125,3.125-3.125,8.188,0,11.313L168,51.313v41.375l-29.656,29.656c-1.5,1.5-2.344,3.535-2.344,5.656v56H8c-4.418,0-8,3.582-8,8
	v224c0,2.121,0.844,4.156,2.344,5.656l56,56c1.5,1.5,3.535,2.344,5.656,2.344h352c2.121,0,4.156-0.844,5.656-2.344l56-56
	c1.5-1.5,2.344-3.535,2.344-5.656V192c0-4.418-3.582-8-8-8H344v-56c0-2.121-0.844-4.156-2.344-5.656L323.313,104H336H472z M464,88
	H344V16h120V88z M203.313,16H328v72h-16V72c0-4.418-3.582-8-8-8h-32h-20.688l-5.656-5.656l-8-8l-16-16
	c-3.125-3.125-8.188-3.125-11.313,0C208.781,35.906,208,37.953,208,40s0.781,4.094,2.344,5.656L220.688,56L208,68.688
	l-26.344-26.344L179.313,40L203.313,16z M184,184v-48h24h32h32h24v48H184z M264,80v40h-16V80H264z M296,80v16v24h-16V80H296z
	 M232,67.313V120h-16V83.313L232,67.313z M200,83.313V120h-16V96V67.313L200,83.313z M152,131.313l16-16V128v56h-16V131.313z
	 M464,412.688L412.688,464H67.313L16,412.688V200h128h32h128h32h128V412.688z M328,184h-16v-56v-12.688l16,16V184z"/>
<g>
</g>
<g>
</g>
<g>
</g>
<g>
</g>
<g>
</g>
<g>
</g>
<g>
</g>
<g>
</g>
<g>
</g>
<g>
</g>
<g>
</g>
<g>
</g>
<g>
</g>
<g>
</g>
<g>
</g>
</svg>
